<svg xmlns="http://www.w3.org/2000/svg" viewBox="0 0 193 193"><defs><style>.cls-1{fill:#3f9;}.cls-2{fill:#fff;}</style></defs><g id="Layer_2" data-name="Layer 2"><g id="movies"><rect class="cls-1" width="193" height="193" rx="5"/><path class="cls-2" d="M45.31,105.9v35.32A11.79,11.79,0,0,0,57.08,153h84.78a11.79,11.79,0,0,0,11.78-11.78V105.9Z"/><polygon class="cls-2" points="96.48 50.77 78.86 54.95 93.63 76.68 112.72 72.34 96.48 50.77"/><polygon class="cls-2" points="73.96 56.12 54.97 60.62 69.58 82.14 88.69 77.8 73.96 56.12"/><path class="cls-2" d="M153.56,60.55l-4-15.2a7.1,7.1,0,0,0-8.44-5.17l-15.83,3.75,15,22.14,11.5-2.62a2.34,2.34,0,0,0,1.5-1.08A2.36,2.36,0,0,0,153.56,60.55Z"/><polygon class="cls-2" points="120.38 45.1 101.49 49.58 117.75 71.2 135.37 67.19 120.38 45.1"/><polygon class="cls-2" points="69.04 82.35 61.5 101.19 79.98 101.19 87.52 82.35 69.04 82.35"/><polygon class="cls-2" points="92.59 82.35 85.05 101.19 103.53 101.19 111.07 82.35 92.59 82.35"/><path class="cls-2" d="M151.28,82.35H139.69l-7.54,18.84h21.49V84.71A2.35,2.35,0,0,0,151.28,82.35Z"/><polygon class="cls-2" points="116.14 82.35 108.6 101.19 127.08 101.19 134.62 82.35 116.14 82.35"/><path class="cls-2" d="M50.07,61.79l-3.84.9a7.06,7.06,0,0,0-5.29,8.61l4.37,17.26v12.63H56.43L63.5,83.52l1.15-.26Z"/></g></g></svg>