<svg xmlns="http://www.w3.org/2000/svg" viewBox="0 0 193 193"><defs><style>.cls-1{fill:#f96;}.cls-2{fill:#fff;}</style></defs><g id="Layer_2" data-name="Layer 2"><g id="music"><rect class="cls-1" width="193" height="193" rx="5"/><path class="cls-2" d="M143.56,43.4a3.93,3.93,0,0,0-3.25-.75L70.88,58.08a3.85,3.85,0,0,0-3,3.76v61a22.35,22.35,0,0,0-11.57-3.16C45.66,119.7,37,126.62,37,135.13s8.66,15.43,19.29,15.43,19.28-6.92,19.28-15.43v-47l61.72-13.72v33.07a22.36,22.36,0,0,0-11.58-3.16c-10.63,0-19.28,6.92-19.28,15.43s8.65,15.43,19.28,15.43S145,128.21,145,119.7V46.41A3.85,3.85,0,0,0,143.56,43.4Z"/></g></g></svg>