<svg xmlns="http://www.w3.org/2000/svg" width="132" height="65" viewBox="0 0 132 65">
  <g id="logo" transform="translate(-27 -36)">
    <g id="roku" transform="translate(-110.5 -247.511)">
      <path id="Path_1" data-name="Path 1" d="M158.132,296.885a6.689,6.689,0,0,0-6.655-6.719h-3.3v13.378h3.3a6.678,6.678,0,0,0,6.655-6.659m15.013,26.669H161.03l-9.618-13.348h-3.235v13.319H137.5V283.511h15.3c8.818,0,16.015,6,16.015,13.374,0,4.5-2.759,8.518-6.958,10.977l11.293,15.692" fill="#6c3c97"/>
      <path id="Path_2" data-name="Path 2" d="M392.64,352.516c-2.82,0-5.218,3.833-5.218,8.577s2.4,8.582,5.218,8.582c2.885,0,5.279-3.838,5.279-8.582s-2.394-8.577-5.279-8.577m16.434,8.577a16.405,16.405,0,1,1-16.434-16.318,16.354,16.354,0,0,1,16.434,16.318m25.055-15.654-12.3,12.3V345.4H411.156v31.357H421.83V364.035l12.84,12.719h13.436L431.79,360.435l13.515-13.51v18.608c0,6.178,3.715,11.88,13.072,11.88a14.835,14.835,0,0,0,10.5-4.8l4.8,4.14h2.279V345.439H465.28v20.275a5.98,5.98,0,0,1-5.466,3.417c-2.626,0-3.832-1.557-3.832-6.537V345.439H434.13Z" transform="translate(-207.455 -53.23)" fill="#6c3c97"/>
    </g>
    <text id="FLASHBACK" transform="translate(27 74)" fill="#3f3f3f" font-size="20" font-family="Futura-Bold, Futura" font-weight="700" letter-spacing="0.025em"><tspan x="0" y="21">FLASHBACK</tspan></text>
  </g>
</svg>
