<svg xmlns="http://www.w3.org/2000/svg" viewBox="0 0 193 193"><defs><style>.cls-1{fill:#6cf;}.cls-2{fill:#fff;}</style></defs><g id="Layer_2" data-name="Layer 2"><g id="shows"><rect class="cls-1" width="193" height="193" rx="5"/><path class="cls-2" d="M61.12,88.54h60V126H61.12Z"/><path class="cls-2" d="M142,68.71H53.4A12.13,12.13,0,0,0,41.28,80.83v52.89A12.14,12.14,0,0,0,53.4,145.85H142a12.14,12.14,0,0,0,12.12-12.13V80.83A12.13,12.13,0,0,0,142,68.71Zm-14.33,60.61a3.31,3.31,0,0,1-3.31,3.3H57.81a3.3,3.3,0,0,1-3.3-3.3V85.24a3.31,3.31,0,0,1,3.3-3.31h66.56a3.31,3.31,0,0,1,3.31,3.31Zm9.92,3.3a3.31,3.31,0,1,1,3.3-3.3A3.31,3.31,0,0,1,137.6,132.62Zm0-13.22a3.31,3.31,0,1,1,3.3-3.31A3.31,3.31,0,0,1,137.6,119.4Zm0-13.23a3.31,3.31,0,1,1,3.3-3.3A3.31,3.31,0,0,1,137.6,106.17Zm3.3-16.53a3.31,3.31,0,1,1-6.61,0v-4.4a3.31,3.31,0,1,1,6.61,0Z"/><path class="cls-2" d="M87.32,58.57a19.18,19.18,0,0,0-4,3.52h28.77a18.93,18.93,0,0,0-4-3.52l10.22-20.81a3.31,3.31,0,0,0-5.94-2.91L102,56a19.16,19.16,0,0,0-8.61,0L83,34.85a3.3,3.3,0,1,0-5.93,2.91Z"/></g></g></svg>